<?xml version="1.0" encoding="iso-8859-1"?>
<!-- Generator: Adobe Illustrator 19.0.0, SVG Export Plug-In . SVG Version: 6.00 Build 0)  -->
<svg version="1.1" id="Capa_1" xmlns="http://www.w3.org/2000/svg" xmlns:xlink="http://www.w3.org/1999/xlink" x="0px" y="0px"
	 viewBox="0 0 487.68 487.68" style="enable-background:new 0 0 487.68 487.68;" xml:space="preserve">
<g>
	<g>
		<path d="M312.8,295.6c33.448-41.079,51.652-92.466,51.52-145.44c0-79.529-64.471-144-144-144s-144,64.471-144,144
			c-0.393,55.522,19.589,109.261,56.16,151.04C80.077,313.472,33.378,343.139,0,385.36l25.12,19.84
			c34.445-43.887,85.166-71.989,140.64-77.92c34.721,20.228,77.75,19.736,112-1.28h6.56c25.96-0.001,51.687,4.884,75.84,14.4
			l11.52-30.24C352.764,302.786,332.973,297.892,312.8,295.6z M220.32,314c-74.88,0-114.72-95.84-114.72-163.84
			c-0.003-63.358,51.356-114.722,114.714-114.726c63.358-0.003,114.722,51.356,114.726,114.714c0,0.004,0,0.007,0,0.011
			C335.04,218.8,295.2,314,220.32,314z"/>
	</g>
</g>
<g>
	<g>
		<polygon points="487.68,369.52 464.96,346.8 420.32,391.6 375.68,346.8 352.96,369.52 397.76,414.16 352.96,458.8 375.68,481.52 
			420.32,436.72 464.96,481.52 487.68,458.8 442.88,414.16 		"/>
	</g>
</g>
<g>
</g>
<g>
</g>
<g>
</g>
<g>
</g>
<g>
</g>
<g>
</g>
<g>
</g>
<g>
</g>
<g>
</g>
<g>
</g>
<g>
</g>
<g>
</g>
<g>
</g>
<g>
</g>
<g>
</g>
</svg>
